<svg xmlns="http://www.w3.org/2000/svg" width="20" height="20" fill="none" xmlns:v="https://vecta.io/nano"><g clip-path="url(#A)"><path d="M11.105 10.001l8.666-8.666a.78.78 0 0 0 0-1.105.78.78 0 0 0-1.105 0L10 8.896 1.333.23a.78.78 0 0 0-1.105 0 .78.78 0 0 0 0 1.105l8.666 8.666-8.666 8.666a.78.78 0 0 0 0 1.105.78.78 0 0 0 .552.229.78.78 0 0 0 .552-.229L10 11.106l8.666 8.666a.78.78 0 0 0 1.105 0 .78.78 0 0 0 0-1.105l-8.666-8.666z" fill="#fff"/></g><defs><clipPath id="A"><path fill="#fff" d="M0 0h20v20H0z"/></clipPath></defs></svg>